<?xml version="1.0" encoding="UTF-8" standalone="no"?>
<!-- Created with Inkscape (http://www.inkscape.org/) -->

<svg
   xmlns:dc="http://purl.org/dc/elements/1.1/"
   xmlns:cc="http://creativecommons.org/ns#"
   xmlns:rdf="http://www.w3.org/1999/02/22-rdf-syntax-ns#"
   xmlns:svg="http://www.w3.org/2000/svg"
   xmlns="http://www.w3.org/2000/svg"
   xmlns:sodipodi="http://sodipodi.sourceforge.net/DTD/sodipodi-0.dtd"
   xmlns:inkscape="http://www.inkscape.org/namespaces/inkscape"
   width="210mm"
   height="297mm"
   viewBox="0 0 210 297"
   version="1.1"
   id="svg4497"
   inkscape:version="0.92pre5 r15287"
   sodipodi:docname="alien.svg">
  <defs
     id="defs4491" />
  <sodipodi:namedview
     id="base"
     pagecolor="#ffffff"
     bordercolor="#666666"
     borderopacity="1.0"
     inkscape:pageopacity="0.0"
     inkscape:pageshadow="2"
     inkscape:zoom="2.8"
     inkscape:cx="339.31375"
     inkscape:cy="620.83194"
     inkscape:document-units="mm"
     inkscape:current-layer="layer1"
     showgrid="false"
     inkscape:window-width="1920"
     inkscape:window-height="1009"
     inkscape:window-x="-8"
     inkscape:window-y="-8"
     inkscape:window-maximized="1" />
  <metadata
     id="metadata4494">
    <rdf:RDF>
      <cc:Work
         rdf:about="">
        <dc:format>image/svg+xml</dc:format>
        <dc:type
           rdf:resource="http://purl.org/dc/dcmitype/StillImage" />
        <dc:title></dc:title>
      </cc:Work>
    </rdf:RDF>
  </metadata>
  <g
     inkscape:label="Layer 1"
     inkscape:groupmode="layer"
     id="layer1">
    <path
       style="fill:none;stroke:#000000;stroke-width:0.26458332px;stroke-linecap:butt;stroke-linejoin:miter;stroke-opacity:1"
       d="M 156.35267,80.778952 C 85.793518,20.108769 44.36674,80.511681 44.36674,80.511681 c 0,0 -10.42351,96.217029 52.652099,140.583769 C 162.49987,176.7287 156.35267,80.778952 156.35267,80.778952 Z"
       id="path5042"
       inkscape:connector-curvature="0" />
    <path
       style="fill:#000000;stroke:#000000;stroke-width:0.26458332px;stroke-linecap:butt;stroke-linejoin:miter;stroke-opacity:1;fill-opacity:1"
       d="m 54.050593,112.16964 6.236608,25.70238 14.930059,-6.04762 8.126489,49.89286 11.150298,-4.7247 10.016373,6.42559 24.00148,-51.02678 10.01637,7.74851 11.33929,-32.50595 -13.98512,18.70982 -9.63839,-16.81994 -23.8125,56.88542 -3.779766,-34.77382 -10.77232,34.9628 -4.724704,-49.51488 -18.142855,9.44941 z"
       id="path5052"
       inkscape:connector-curvature="0" />
    <path
       style="opacity:1;fill:#000000;fill-opacity:1;fill-rule:nonzero;stroke:none;stroke-width:2.69966269;stroke-miterlimit:4;stroke-dasharray:none;stroke-opacity:0"
       d="m 386.40272,447.8569 c 7.8e-4,-7.20889 1.1704,-19.68542 2.55826,-27.28943 6.16768,-33.79246 23.44819,-56.67189 50.16894,-66.42375 18.41083,-6.71912 42.69939,-7.43879 70.66142,-2.09371 l 8.03206,1.53538 -2.1949,2.77129 c -9.54796,12.05528 -30.63488,33.50307 -45.27515,46.04997 -26.71204,22.89255 -53.62841,39.6113 -79.1298,49.15043 l -4.82143,1.80352 z"
       id="path5054"
       inkscape:connector-curvature="0"
       transform="scale(0.26458333)" />
    <path
       style="opacity:1;fill:#000000;fill-opacity:1;fill-rule:nonzero;stroke:none;stroke-width:2.69966269;stroke-miterlimit:4;stroke-dasharray:none;stroke-opacity:0"
       d="m 348.90212,449.39082 c -29.8243,-6.32388 -66.71228,-30.98278 -104.35775,-69.76111 -10.2716,-10.5807 -11.65227,-12.26771 -10.41475,-12.72549 3.59233,-1.32889 19.88063,-4.2319 27.62965,-4.92435 28.69752,-2.56437 53.2543,6.80656 69.0243,26.33986 9.51808,11.78944 15.01665,22.92325 22.4256,45.40865 2.9347,8.90649 5.33581,16.33886 5.33581,16.51636 0,0.61466 -4.66518,0.20153 -9.64286,-0.85392 z"
       id="path5056"
       inkscape:connector-curvature="0"
       transform="scale(0.26458333)" />
    <path
       style="opacity:1;fill:#fdffff;fill-opacity:1;fill-rule:nonzero;stroke:#000000;stroke-width:3.81789947;stroke-miterlimit:4;stroke-dasharray:none;stroke-opacity:1"
       d="m 356.58506,826.90139 c -27.94953,-20.98097 -55.56472,-48.52303 -77.43461,-77.22951 -61.6624,-80.9383 -97.99408,-185.4729 -110.02739,-316.57411 -2.09393,-22.81312 -3.06611,-91.8853 -1.59034,-112.99235 l 1.08462,-15.51263 4.33282,-5.70058 c 6.59266,-8.67378 30.41926,-32.25337 41.20339,-40.77624 30.42383,-24.04443 63.22857,-40.29322 97.37623,-48.23223 31.85123,-7.40511 69.39929,-7.37463 103.13905,0.0837 53.90689,11.9164 110.4331,41.9772 166.28747,88.43217 l 8.70367,7.23898 0.69712,11.95926 c 0.80974,13.89129 -0.77956,56.84962 -3.02111,81.6598 -11.55202,127.86161 -49.01086,239.44371 -108.96155,324.57381 -27.30436,38.77226 -60.91739,73.21835 -98.94666,101.39897 -6.60415,4.89383 -12.28626,8.89268 -12.62691,8.88632 -0.34064,-0.006 -4.93775,-3.25328 -10.2158,-7.21537 z M 438.8988,602.29832 c 23.75986,-50.55814 44.16525,-93.79313 45.34531,-96.07776 l 2.14555,-4.15387 18.66389,14.47894 c 12.33992,9.57298 18.88875,14.06093 19.32751,13.24525 0.36499,-0.67854 10.08343,-28.28053 21.59652,-61.33777 11.51308,-33.05725 21.11951,-60.4136 21.3476,-60.79189 0.2281,-0.37831 -0.005,-0.94702 -0.51727,-1.26382 -0.5126,-0.3168 -12.65707,15.11531 -26.98772,34.29357 -16.9736,22.71523 -26.31839,34.42311 -26.80923,33.5887 -0.41443,-0.70448 -8.42774,-14.62174 -17.80738,-30.92723 -9.37964,-16.3055 -17.47038,-29.71527 -17.97942,-29.7995 -0.50903,-0.0842 -20.67001,47.01723 -44.80218,104.6699 -24.13216,57.65268 -44.18281,104.47325 -44.55699,104.04571 -0.37418,-0.42753 -3.50123,-27.14232 -6.949,-59.36618 -6.92124,-64.68788 -7.10305,-66.16499 -8.14385,-66.16499 -0.40001,0 -9.54693,28.6893 -20.32648,63.75401 -10.77955,35.06471 -19.71477,63.13432 -19.85604,62.37692 -0.14126,-0.75741 -4.12139,-41.79848 -8.84473,-91.20239 -4.72334,-49.40393 -8.71301,-89.95042 -8.86593,-90.10334 -0.15291,-0.15291 -15.49195,7.63998 -34.08674,17.31753 -18.59479,9.67756 -34.094,17.60876 -34.44268,17.62488 -0.34869,0.0162 -9.82691,-12.01518 -21.06272,-26.73625 -11.23582,-14.72107 -20.77378,-26.55235 -21.19547,-26.29173 -0.4217,0.26063 0.68482,6.5094 2.45894,13.88615 16.03804,66.68602 20.12684,83.22451 20.7517,83.93702 0.39756,0.45332 13.13091,-4.208 28.29633,-10.35847 15.16543,-6.15049 27.68289,-11.06707 27.81659,-10.92575 0.1337,0.14133 7.07267,42.23361 15.41994,93.53841 8.34726,51.3048 15.41471,93.5193 15.70543,93.81003 0.29071,0.29072 9.91778,-3.45815 21.39347,-8.33081 l 20.86492,-8.85939 3.02387,1.78625 c 1.66312,0.98243 10.33736,6.49714 19.27609,12.2549 8.93872,5.75775 16.33057,10.36475 16.42633,10.23775 0.0958,-0.127 19.61399,-41.59665 43.37384,-92.15478 z M 394.79856,450.6437 c 30.49915,-12.02674 64.96618,-35.99563 95.68149,-66.53833 19.27638,-19.16804 28.45995,-29.8261 26.57502,-30.84185 -3.12388,-1.6834 -22.52068,-4.26517 -35.71617,-4.75393 -23.08035,-0.85489 -40.66145,2.66918 -54.79333,10.98315 -8.48774,4.99344 -21.16982,18.11857 -26.22195,27.13801 -8.1075,14.47414 -12.82647,32.95554 -14.09762,55.21211 -0.50016,8.75705 -0.36109,11.45796 0.58993,11.45796 0.6844,0 4.27659,-1.1957 7.98263,-2.65712 z m -36.1932,-0.66374 c 0,-2.17581 -9.5796,-30.02073 -13.1061,-38.0954 -14.53955,-33.2913 -39.94491,-50.51775 -74.48204,-50.50356 -14.31126,0.006 -37.65923,3.98962 -37.68094,6.4293 -0.0168,1.89152 34.08349,34.90895 45.46703,44.02318 25.2144,20.18791 49.98911,33.65162 69.70053,37.87844 8.45305,1.81262 10.10152,1.85637 10.10152,0.26804 z"
       id="path5058"
       inkscape:connector-curvature="0"
       transform="scale(0.26458333)" />
    <path
       style="fill:#000000;stroke:#000000;stroke-width:0.26458332px;stroke-linecap:butt;stroke-linejoin:miter;stroke-opacity:1;fill-opacity:1"
       d="m 100.12585,166.73951 1.70384,-2.93996 3.80859,0.26727 c 0,0 -0.23386,4.74403 -0.3675,4.74403 -0.13363,0 -5.14493,-2.07134 -5.14493,-2.07134 z"
       id="path5060"
       inkscape:connector-curvature="0" />
    <path
       style="fill:#000000;stroke:#000000;stroke-width:0.26458332px;stroke-linecap:butt;stroke-linejoin:miter;stroke-opacity:1;fill-opacity:1"
       d="m 87.263501,164.4009 4.176085,-0.16704 -2.973374,3.50791 z"
       id="path5062"
       inkscape:connector-curvature="0" />
    <path
       style="fill:#000000;stroke:#000000;stroke-width:0.26458332px;stroke-linecap:butt;stroke-linejoin:miter;stroke-opacity:1;fill-opacity:1"
       d="m 134.11919,126.19806 1.68714,-0.85192 2.50565,1.21942 -1.55351,0.93545 z"
       id="path5064"
       inkscape:connector-curvature="0" />
  </g>
</svg>
